<?xml version="1.0" encoding="UTF-8" standalone="no"?>
<svg
   xmlns:dc="http://purl.org/dc/elements/1.1/"
   xmlns:cc="http://creativecommons.org/ns#"
   xmlns:rdf="http://www.w3.org/1999/02/22-rdf-syntax-ns#"
   xmlns:svg="http://www.w3.org/2000/svg"
   xmlns="http://www.w3.org/2000/svg"
   xmlns:sodipodi="http://sodipodi.sourceforge.net/DTD/sodipodi-0.dtd"
   xmlns:inkscape="http://www.inkscape.org/namespaces/inkscape"
   version="1.0"
   width="174.000000pt"
   height="174.000000pt"
   viewBox="0 0 174.000000 174.000000"
   preserveAspectRatio="xMidYMid meet"
   id="svg2"
   inkscape:version="0.48.2 r9819"
   sodipodi:docname="clubsuitimage.svg"
   inkscape:export-filename="/Users/breber/Downloads/clubsuitimage.png"
   inkscape:export-xdpi="144"
   inkscape:export-ydpi="144">
  <defs
     id="defs12" />
  <sodipodi:namedview
     pagecolor="#ffffff"
     bordercolor="#666666"
     borderopacity="1"
     objecttolerance="10"
     gridtolerance="10"
     guidetolerance="10"
     inkscape:pageopacity="0"
     inkscape:pageshadow="2"
     inkscape:window-width="1280"
     inkscape:window-height="752"
     id="namedview10"
     showgrid="false"
     inkscape:zoom="2.1701149"
     inkscape:cx="26.726695"
     inkscape:cy="108.75"
     inkscape:window-x="0"
     inkscape:window-y="22"
     inkscape:window-maximized="1"
     inkscape:current-layer="svg2" />
  <metadata
     id="metadata4">
Created by potrace 1.10, written by Peter Selinger 2001-2011
<rdf:RDF>
  <cc:Work
     rdf:about="">
    <dc:format>image/svg+xml</dc:format>
    <dc:type
       rdf:resource="http://purl.org/dc/dcmitype/StillImage" />
    <dc:title></dc:title>
  </cc:Work>
</rdf:RDF>
</metadata>
  <g
     transform="translate(0.000000,174.000000) scale(0.100000,-0.100000)"
     fill="#000000"
     stroke="none"
     id="g6">
    <path
       d="M0 870 l0 -870 870 0 870 0 0 870 0 870 -870 0 -870 0 0 -870z m934 649 c100 -37 176 -149 176 -259 0 -49 -25 -131 -50 -163 -28 -35 -6 -41 59 -16 104 39 209 12 285 -73 99 -109 100 -270 3 -375 -123 -134 -309 -121 -418 30 l-28 39 -7 -27 c-5 -22 -1 -228 9 -420 l2 -40 -127 -3 -128 -3 0 25 c0 14 6 55 14 93 17 80 32 358 22 399 -7 27 -8 26 -25 -24 -65 -192 -310 -241 -446 -90 -106 118 -96 294 23 399 80 70 175 86 275 45 50 -21 57 -22 57 -7 0 9 -6 25 -13 36 -8 11 -22 50 -32 87 -31 119 -2 223 83 299 78 68 169 85 266 48z"
       id="path8" />
  </g>
  <path
     style="fill:#ffc90e;stroke:none;fill-opacity:1"
     d="m 89.165784,188.40265 c 0,-1.52108 0.610921,-6.34817 1.357601,-10.72687 1.667262,-9.77719 2.722699,-22.72284 3.091034,-37.9136 0.282239,-11.64012 -0.07844,-15.74169 -1.347094,-15.3188 -0.29333,0.0978 -1.272412,2.13297 -2.175733,4.52265 -2.122726,5.61555 -3.943261,8.74783 -7.133134,12.27275 -4.203109,4.64459 -10.512968,8.33249 -16.832928,9.83827 -3.374021,0.8039 -10.116785,0.8177 -13.824153,0.0283 -3.976212,-0.84664 -9.935906,-3.63695 -13.304842,-6.22929 -5.254529,-4.04327 -9.431464,-10.05555 -11.876339,-17.09481 -1.16676,-3.35932 -1.281915,-4.27934 -1.297743,-10.36811 -0.01647,-6.33418 0.0572,-6.89003 1.416444,-10.68788 3.167935,-8.85149 9.830055,-16.448461 17.849965,-20.354734 5.247634,-2.555975 8.148042,-3.247528 13.433384,-3.202964 4.995051,0.04212 7.176339,0.509591 13.911714,2.981465 2.873258,1.054483 5.497013,1.761699 5.925636,1.597219 1.023241,-0.392652 0.584513,-2.781696 -1.14728,-6.247448 C 72.546521,72.161403 70.833128,59.841469 73.0107,51.287606 76.085583,39.208962 85.907984,29.407664 98.151483,26.200841 c 2.326857,-0.609453 9.493947,-0.629845 12.625677,-0.03592 9.99697,1.895887 19.26692,9.281758 24.01271,19.132223 3.58717,7.445619 4.44222,14.016285 2.76836,21.273649 -1.27932,5.546727 -3.1171,10.428667 -4.93578,13.111539 -1.70794,2.519521 -2.00166,3.318202 -1.51179,4.110828 0.61711,0.998509 3.06697,0.666038 8.98445,-1.219276 5.15168,-1.641328 5.90295,-1.759658 11.27936,-1.776598 5.12451,-0.01613 6.17142,0.123146 9.48818,1.262422 9.07393,3.116798 17.448,11.251215 21.23526,20.627536 1.89642,4.69504 2.5721,8.85859 2.31502,14.26509 -0.40597,8.53759 -3.25927,15.1705 -9.26561,21.5392 -13.1318,13.92403 -31.478,14.79528 -45.78449,2.17427 -1.33509,-1.17779 -3.96344,-4.20105 -5.8408,-6.71835 -1.87736,-2.5173 -3.54122,-4.37005 -3.69748,-4.11722 -0.84342,1.36469 -1.22511,9.57744 -0.96486,20.76087 0.31449,13.51386 1.03943,32.30841 1.41617,36.71489 l 0.2433,2.84571 -2.42854,0.24568 c -1.3357,0.13513 -8.39021,0.36386 -15.67669,0.50828 l -13.248146,0.2626 0,-2.76561 z"
     id="path3053"
     inkscape:connector-curvature="0"
     transform="scale(0.8,0.8)" />
</svg>
