<?xml version="1.0" encoding="UTF-8" standalone="no"?>
<svg
   xmlns:dc="http://purl.org/dc/elements/1.1/"
   xmlns:cc="http://creativecommons.org/ns#"
   xmlns:rdf="http://www.w3.org/1999/02/22-rdf-syntax-ns#"
   xmlns:svg="http://www.w3.org/2000/svg"
   xmlns="http://www.w3.org/2000/svg"
   xmlns:sodipodi="http://sodipodi.sourceforge.net/DTD/sodipodi-0.dtd"
   xmlns:inkscape="http://www.inkscape.org/namespaces/inkscape"
   version="1.0"
   width="174.000000pt"
   height="174.000000pt"
   viewBox="0 0 174.000000 174.000000"
   preserveAspectRatio="xMidYMid meet"
   id="svg3900"
   inkscape:version="0.48.2 r9819"
   sodipodi:docname="diamondsuitimage.svg"
   inkscape:export-filename="/Users/breber/Downloads/diamondsuitimage.png"
   inkscape:export-xdpi="144"
   inkscape:export-ydpi="144">
  <defs
     id="defs3910" />
  <sodipodi:namedview
     pagecolor="#ffffff"
     bordercolor="#666666"
     borderopacity="1"
     objecttolerance="10"
     gridtolerance="10"
     guidetolerance="10"
     inkscape:pageopacity="0"
     inkscape:pageshadow="2"
     inkscape:window-width="1280"
     inkscape:window-height="752"
     id="namedview3908"
     showgrid="false"
     inkscape:zoom="3.069006"
     inkscape:cx="108.75"
     inkscape:cy="108.75"
     inkscape:window-x="0"
     inkscape:window-y="22"
     inkscape:window-maximized="0"
     inkscape:current-layer="svg3900" />
  <metadata
     id="metadata3902">
Created by potrace 1.10, written by Peter Selinger 2001-2011
<rdf:RDF>
  <cc:Work
     rdf:about="">
    <dc:format>image/svg+xml</dc:format>
    <dc:type
       rdf:resource="http://purl.org/dc/dcmitype/StillImage" />
  </cc:Work>
</rdf:RDF>
</metadata>
  <g
     transform="translate(0.000000,174.000000) scale(0.100000,-0.100000)"
     fill="#000000"
     stroke="none"
     id="g3904">
    <path
       d="M0 870 l0 -870 870 0 870 0 0 870 0 870 -870 0 -870 0 0 -870z m1081 320 c104 -168 189 -309 189 -315 0 -5 -85 -147 -189 -315 -128 -207 -194 -305 -206 -305 -11 0 -79 99 -207 300 -105 165 -192 305 -195 312 -7 19 387 634 404 631 9 -2 100 -140 204 -308z"
       id="path3906" />
  </g>
  <path
     style="fill:#ffc90e;fill-opacity:1"
     d="M 108.1387,184.19788 C 104.83209,180.69558 94.43212,165.04421 75.824308,135.5665 64.278932,117.27681 59.483234,109.43043 59.483234,108.83041 c 0,-3.02878 37.349259,-61.96882 48.474036,-76.495805 l 1.45208,-1.896154 0.7753,0.728354 c 1.51939,1.4274 10.58097,15.088385 20.728,31.248974 8.53409,13.591766 23.59494,38.397461 26.38021,43.449061 1.20396,2.1836 1.21883,2.25212 0.70681,3.25839 -1.63031,3.20405 -19.89965,33.29956 -29.11919,47.96873 -11.56983,18.4087 -18.31127,28.1649 -19.46168,28.1649 -0.15416,0 -0.7302,-0.47654 -1.2801,-1.05898 l 0,0 z"
     id="path3930"
     inkscape:connector-curvature="0"
     transform="scale(0.8,0.8)" />
</svg>
