<?xml version="1.0" encoding="UTF-8" standalone="no"?>
<svg
   xmlns:dc="http://purl.org/dc/elements/1.1/"
   xmlns:cc="http://creativecommons.org/ns#"
   xmlns:rdf="http://www.w3.org/1999/02/22-rdf-syntax-ns#"
   xmlns:svg="http://www.w3.org/2000/svg"
   xmlns="http://www.w3.org/2000/svg"
   xmlns:sodipodi="http://sodipodi.sourceforge.net/DTD/sodipodi-0.dtd"
   xmlns:inkscape="http://www.inkscape.org/namespaces/inkscape"
   version="1.0"
   width="174.000000pt"
   height="174.000000pt"
   viewBox="0 0 174.000000 174.000000"
   preserveAspectRatio="xMidYMid meet"
   id="svg4068"
   inkscape:version="0.48.2 r9819"
   sodipodi:docname="heartsuitimage.svg">
  <defs
     id="defs4078" />
  <sodipodi:namedview
     pagecolor="#ffffff"
     bordercolor="#666666"
     borderopacity="1"
     objecttolerance="10"
     gridtolerance="10"
     guidetolerance="10"
     inkscape:pageopacity="0"
     inkscape:pageshadow="2"
     inkscape:window-width="1280"
     inkscape:window-height="752"
     id="namedview4076"
     showgrid="false"
     inkscape:zoom="4.3402299"
     inkscape:cx="108.75"
     inkscape:cy="108.75"
     inkscape:window-x="0"
     inkscape:window-y="22"
     inkscape:window-maximized="0"
     inkscape:current-layer="svg4068" />
  <metadata
     id="metadata4070">
Created by potrace 1.10, written by Peter Selinger 2001-2011
<rdf:RDF>
  <cc:Work
     rdf:about="">
    <dc:format>image/svg+xml</dc:format>
    <dc:type
       rdf:resource="http://purl.org/dc/dcmitype/StillImage" />
  </cc:Work>
</rdf:RDF>
</metadata>
  <g
     transform="translate(0.000000,174.000000) scale(0.100000,-0.100000)"
     fill="#000000"
     stroke="none"
     id="g4072">
    <path
       d="M0 870 l0 -870 870 0 870 0 0 870 0 870 -870 0 -870 0 0 -870z m684 475 c47 -20 121 -87 156 -142 l27 -42 21 38 c28 50 110 126 158 146 63 27 162 17 216 -21 59 -41 95 -97 115 -178 14 -59 15 -81 5 -147 -34 -236 -208 -471 -448 -605 l-66 -37 -36 18 c-52 24 -148 90 -214 147 -123 106 -233 290 -264 442 -34 167 21 317 138 375 52 25 139 28 192 6z"
       id="path4074" />
  </g>
  <path
     style="fill:#ffc90e;fill-opacity:1"
     d="M 106.9759,172.02882 C 99.568233,168.25194 94.875878,165.39256 88.269762,160.62986 75.480225,151.40922 67.748054,143.60856 60.094448,132.20498 51.456529,119.33481 45.792705,105.9792 43.848257,93.895577 43.045805,88.908804 43.00118,81.66875 43.744263,77.02357 c 1.42821,-8.928065 5.511694,-17.06626 11.067649,-22.057312 5.834534,-5.241308 11.182009,-7.170105 19.907632,-7.180547 4.409202,-0.0053 6.360567,0.270373 9.519139,1.344673 3.736095,1.270728 7.864054,4.147562 12.914325,9.000177 3.377152,3.244977 5.513132,5.840811 8.483842,10.310313 1.41779,2.133093 2.63625,3.900018 2.70769,3.926498 0.0714,0.02648 0.89122,-1.289282 1.82176,-2.923918 2.3366,-4.104606 4.11051,-6.400015 7.86847,-10.181664 5.6683,-5.704019 10.36732,-9.049872 14.63101,-10.417729 5.72092,-1.835359 13.81686,-1.511364 20.03736,0.801884 2.7349,1.017043 4.37197,1.978476 7.08981,4.163748 3.63831,2.925382 6.15803,6.04784 8.48136,10.510162 2.68057,5.148465 4.85137,13.098699 5.10442,18.694181 0.23888,5.282379 -1.43923,15.183979 -3.88186,22.904584 -1.99681,6.31151 -6.27787,15.50735 -9.98491,21.44791 -9.88132,15.83486 -23.5717,29.22253 -39.88742,39.00542 -2.24241,1.34455 -11.16149,6.40246 -11.23774,6.37279 -0.0157,-0.006 -0.65057,-0.32826 -1.4109,-0.71592 l 0,0 z"
     id="path4084"
     inkscape:connector-curvature="0"
     transform="scale(0.8,0.8)" />
</svg>
