<?xml version="1.0" encoding="UTF-8" standalone="no"?>
<svg
   xmlns:dc="http://purl.org/dc/elements/1.1/"
   xmlns:cc="http://creativecommons.org/ns#"
   xmlns:rdf="http://www.w3.org/1999/02/22-rdf-syntax-ns#"
   xmlns:svg="http://www.w3.org/2000/svg"
   xmlns="http://www.w3.org/2000/svg"
   xmlns:sodipodi="http://sodipodi.sourceforge.net/DTD/sodipodi-0.dtd"
   xmlns:inkscape="http://www.inkscape.org/namespaces/inkscape"
   version="1.0"
   width="115.000000pt"
   height="107.000000pt"
   viewBox="0 0 115.000000 107.000000"
   preserveAspectRatio="xMidYMid meet"
   id="svg4200"
   inkscape:version="0.48.2 r9819"
   sodipodi:docname="pause_button.svg">
  <defs
     id="defs4210" />
  <sodipodi:namedview
     pagecolor="#ffffff"
     bordercolor="#666666"
     borderopacity="1"
     objecttolerance="10"
     gridtolerance="10"
     guidetolerance="10"
     inkscape:pageopacity="0"
     inkscape:pageshadow="2"
     inkscape:window-width="1280"
     inkscape:window-height="752"
     id="namedview4208"
     showgrid="false"
     inkscape:zoom="4.99072"
     inkscape:cx="71.875"
     inkscape:cy="66.875"
     inkscape:window-x="0"
     inkscape:window-y="22"
     inkscape:window-maximized="0"
     inkscape:current-layer="svg4200" />
  <metadata
     id="metadata4202">
Created by potrace 1.10, written by Peter Selinger 2001-2011
<rdf:RDF>
  <cc:Work
     rdf:about="">
    <dc:format>image/svg+xml</dc:format>
    <dc:type
       rdf:resource="http://purl.org/dc/dcmitype/StillImage" />
  </cc:Work>
</rdf:RDF>
</metadata>
  <g
     transform="translate(0.000000,107.000000) scale(0.100000,-0.100000)"
     fill="#000000"
     stroke="none"
     id="g4204">
    <path
       d="M0 535 l0 -535 575 0 575 0 0 535 0 535 -575 0 -575 0 0 -535z m500 0 l0 -335 -115 0 -115 0 0 335 0 335 115 0 115 0 0 -335z m390 0 l0 -335 -115 0 -115 0 0 335 0 335 115 0 115 0 0 -335z"
       id="path4206" />
  </g>
  <path
     style="fill:#ffc90e;fill-opacity:1"
     d="m 33.764267,66.935112 0,-41.777539 14.32659,0 14.32659,0 0,41.777539 0,41.777538 -14.32659,0 -14.32659,0 0,-41.777538 z"
     id="path4212"
     inkscape:connector-curvature="0"
     transform="scale(0.8,0.8)" />
  <path
     style="fill:#ffc90e;fill-opacity:1"
     d="m 82.655008,66.935112 0,-41.777539 14.226404,0 14.226408,0 0,41.777539 0,41.777538 -14.226408,0 -14.226404,0 0,-41.777538 z"
     id="path4214"
     inkscape:connector-curvature="0"
     transform="scale(0.8,0.8)" />
</svg>
