<?xml version="1.0" encoding="UTF-8" standalone="no"?>
<svg
   xmlns:dc="http://purl.org/dc/elements/1.1/"
   xmlns:cc="http://creativecommons.org/ns#"
   xmlns:rdf="http://www.w3.org/1999/02/22-rdf-syntax-ns#"
   xmlns:svg="http://www.w3.org/2000/svg"
   xmlns="http://www.w3.org/2000/svg"
   xmlns:sodipodi="http://sodipodi.sourceforge.net/DTD/sodipodi-0.dtd"
   xmlns:inkscape="http://www.inkscape.org/namespaces/inkscape"
   version="1.0"
   width="110.000000pt"
   height="110.000000pt"
   viewBox="0 0 110.000000 110.000000"
   preserveAspectRatio="xMidYMid meet"
   id="svg4266"
   inkscape:version="0.48.2 r9819"
   sodipodi:docname="refresh_button.svg">
  <defs
     id="defs4276" />
  <sodipodi:namedview
     pagecolor="#ffffff"
     bordercolor="#666666"
     borderopacity="1"
     objecttolerance="10"
     gridtolerance="10"
     guidetolerance="10"
     inkscape:pageopacity="0"
     inkscape:pageshadow="2"
     inkscape:window-width="1280"
     inkscape:window-height="752"
     id="namedview4274"
     showgrid="false"
     inkscape:zoom="4.8546095"
     inkscape:cx="68.75"
     inkscape:cy="68.75"
     inkscape:window-x="0"
     inkscape:window-y="22"
     inkscape:window-maximized="0"
     inkscape:current-layer="svg4266" />
  <metadata
     id="metadata4268">
Created by potrace 1.10, written by Peter Selinger 2001-2011
<rdf:RDF>
  <cc:Work
     rdf:about="">
    <dc:format>image/svg+xml</dc:format>
    <dc:type
       rdf:resource="http://purl.org/dc/dcmitype/StillImage" />
  </cc:Work>
</rdf:RDF>
</metadata>
  <g
     transform="translate(0.000000,110.000000) scale(0.100000,-0.100000)"
     fill="#000000"
     stroke="none"
     id="g4270">
    <path
       d="M0 550 l0 -550 550 0 550 0 0 550 0 550 -550 0 -550 0 0 -550z m941 376 l-53 -53 41 -54 c106 -139 124 -325 47 -484 -19 -38 -46 -83 -60 -100 l-25 -30 -42 41 -41 42 31 45 c37 54 49 85 62 155 17 88 -23 225 -80 276 l-22 20 -59 -59 -60 -59 0 150 c0 83 3 154 7 157 3 4 74 7 157 7 l150 0 -53 -54z m-676 -106 l39 -40 -21 -28 c-64 -87 -89 -182 -72 -276 12 -67 46 -141 78 -170 l22 -20 60 60 60 59 -3 -155 -3 -155 -155 -3 -155 -3 53 54 54 54 -41 54 c-125 165 -125 390 0 564 18 25 35 45 39 45 3 0 23 -18 45 -40z"
       id="path4272" />
  </g>
  <path
     style="fill:#ffc90e;fill-opacity:1"
     d="m 14.945466,126.03903 c 0,-0.0775 2.919625,-3.06986 6.488055,-6.64967 l 6.488054,-6.50873 -2.501886,-3.28934 c -3.163255,-4.15888 -4.990862,-6.76831 -6.338929,-9.05064 -4.036777,-6.834406 -6.612185,-14.4156 -7.664641,-22.562307 -0.353175,-2.733802 -0.356419,-10.756758 -0.0054,-13.389337 1.318354,-9.887817 4.673191,-18.85521 10.113288,-27.03256 2.060573,-3.097376 5.005626,-6.825832 5.710616,-7.229677 0.484021,-0.277265 1.140461,0.280012 6.005863,5.098604 l 4.596685,4.55246 -1.321571,1.752083 c -6.343608,8.410098 -9.738006,16.371967 -10.667665,25.021983 -0.292122,2.718048 -0.138805,8.140807 0.297604,10.526142 1.427897,7.804638 4.404961,15.17809 8.061793,19.967067 0.608397,0.796756 1.906038,2.176766 2.883643,3.066692 l 1.777467,1.61804 7.350062,-7.289479 7.350062,-7.289483 0.0674,1.441929 c 0.05918,1.265999 -0.569996,36.617923 -0.653109,36.696803 -0.05168,0.049 -33.598034,0.69631 -35.925984,0.69318 -1.161267,-0.002 -2.111395,-0.0662 -2.111395,-0.14376 z"
     id="path4278"
     inkscape:connector-curvature="0"
     transform="scale(0.8,0.8)" />
  <path
     style="fill:#ffc90e;fill-opacity:1"
     d="m 106.22099,106.57351 c -2.73964,-2.73964 -4.9395,-5.08975 -4.88857,-5.22246 0.0509,-0.13271 1.19988,-1.853913 2.55323,-3.824896 5.32257,-7.751639 6.76329,-10.984884 8.43502,-18.929842 0.72193,-3.43098 0.75888,-3.79853 0.76625,-7.621622 0.008,-4.262864 -0.20066,-6.277037 -1.04453,-10.072372 -1.90618,-8.573147 -4.99476,-14.742784 -9.62656,-19.229676 -1.25725,-1.217915 -2.37985,-2.214391 -2.494665,-2.214391 -0.114814,0 -3.482955,3.267513 -7.484758,7.261141 l -7.276005,7.26114 0.09896,-16.891163 c 0.09757,-16.653576 0.244743,-20.488407 0.807918,-21.051582 0.155696,-0.155696 1.25302,-0.361141 2.629315,-0.49227 2.882823,-0.274666 35.011484,-0.513516 35.011484,-0.260281 0,0.09773 -2.87356,3.050133 -6.38569,6.560888 -3.51212,3.510755 -6.38568,6.439571 -6.38568,6.508479 0,0.06891 1.21578,1.737986 2.70173,3.709062 4.99113,6.620609 7.22287,10.172845 9.13878,14.546097 6.72321,15.346334 6.65645,31.944582 -0.19063,47.395182 -1.54103,3.477363 -4.95119,9.468516 -7.16512,12.588086 -1.38474,1.95117 -3.85779,4.96165 -4.07591,4.96165 -0.0789,0 -2.38492,-2.24153 -5.12457,-4.98117 l 0,0 z"
     id="path4280"
     inkscape:connector-curvature="0"
     transform="scale(0.8,0.8)" />
</svg>
